<svg width="24" height="24" viewBox="0 0 24 24" fill="none" xmlns="http://www.w3.org/2000/svg">
<g clip-path="url(#clip0_226_331)">
<g clip-path="url(#clip1_226_331)">
<path d="M13.267 20.507V9.72242C13.267 9.33937 13.0902 8.92684 12.8103 8.57325C12.5304 8.21966 12.1473 7.95447 11.7348 7.85134L4.39778 6.06865C4.30938 6.03918 4.20625 6.02445 4.10312 6.02445C3.92632 6.02445 3.77899 6.06865 3.67586 6.15705H3.66113C3.558 6.23071 3.48434 6.36331 3.45487 6.51064C3.44014 6.56957 3.4254 6.65797 3.4254 6.7611V17.5456C3.4254 17.9287 3.6022 18.3412 3.88213 18.6948C4.16205 19.0484 4.54511 19.3136 4.9429 19.4167L12.2799 21.2141C12.383 21.2289 12.4862 21.2436 12.5893 21.2436C12.7661 21.2436 12.9134 21.1994 13.0166 21.111C13.1197 21.0373 13.2081 20.9195 13.2376 20.7574C13.2523 20.6985 13.267 20.6101 13.267 20.507ZM15.5948 16.1018L19.5875 17.0742C19.6906 17.1036 19.779 17.1184 19.8821 17.1184C20.0737 17.1184 20.221 17.0742 20.3241 16.9858C20.4272 16.8974 20.5009 16.7795 20.5451 16.6322C20.5598 16.5733 20.5746 16.4849 20.5746 16.3817V5.59719C20.5746 5.1994 20.3978 4.78688 20.1179 4.44802C19.8379 4.09443 19.4549 3.82924 19.0423 3.72611L11.7053 1.92869C11.6169 1.91395 11.5138 1.89922 11.4107 1.89922C11.2339 1.89922 11.0718 1.94342 10.9687 2.03182C10.8656 2.10548 10.7919 2.22334 10.7477 2.38541C10.733 2.44434 10.733 2.53274 10.733 2.63587V5.21414L12.2799 5.59719C13.2081 5.81819 14.0331 6.39277 14.6225 7.11469C15.2265 7.86607 15.5948 8.79425 15.5948 9.72242V16.1018ZM8.40515 4.65428V2.63587C8.40515 2.35594 8.43461 2.09075 8.49354 1.84029C8.67034 1.14784 9.03866 0.587986 9.55432 0.190196C10.07 -0.207594 10.7035 -0.428589 11.4107 -0.428589C11.6759 -0.428589 11.9558 -0.399123 12.2505 -0.325458L19.5875 1.47196C20.5156 1.69296 21.3407 2.26754 21.93 2.98946C22.5193 3.74084 22.9024 4.66902 22.9024 5.59719V16.3817C22.9024 16.6469 22.8582 16.9121 22.7993 17.1773C22.6372 17.8698 22.2541 18.4296 21.7385 18.8274C21.2228 19.2252 20.5893 19.4462 19.8821 19.4462C19.6169 19.4462 19.337 19.402 19.0423 19.3283L15.5948 18.4885V20.507C15.5948 20.7721 15.5654 21.0373 15.4917 21.3025C15.3296 21.995 14.9613 22.5548 14.4457 22.9526C13.93 23.3504 13.2818 23.5714 12.5893 23.5714C12.3241 23.5714 12.0295 23.5272 11.7348 23.4683L4.39778 21.6709C3.48434 21.4499 2.65929 20.8753 2.06997 20.1534C1.46592 19.402 1.0976 18.4738 1.0976 17.5456V6.7611C1.0976 6.4959 1.12706 6.23071 1.20073 5.96552C1.36279 5.27307 1.73111 4.71322 2.2615 4.31543C2.77715 3.91764 3.41067 3.69664 4.10312 3.69664C4.36831 3.69664 4.64824 3.74084 4.9429 3.79977L8.40515 4.65428ZM5.23756 15.2326L11.4254 16.6175V18.9895L5.23756 17.6046V15.2326ZM5.23756 11.7261L11.4254 13.0963V14.9084L11.3075 15.4535L5.23756 14.0981V11.7261ZM5.23756 8.49959L11.4254 9.88449V12.2418L11.4107 12.2565L5.23756 10.8716V8.49959Z" fill="#98A2B3"/>
</g>
</g>
<defs>
<clipPath id="clip0_226_331">
<rect width="24" height="24" fill="white"/>
</clipPath>
<clipPath id="clip1_226_331">
<rect width="24" height="24" fill="white" transform="translate(0 -0.428589)"/>
</clipPath>
</defs>
</svg>
