<svg width="24" height="24" viewBox="0 0 24 24" fill="none" xmlns="http://www.w3.org/2000/svg">
<g clip-path="url(#clip0_226_300)">
<path d="M21.1199 9.28135L14.1199 2.28135C13.55 1.73379 12.7903 1.42798 11.9999 1.42798C11.2096 1.42798 10.4499 1.73379 9.87994 2.28135L2.87994 9.28135C2.31717 9.84342 2.00064 10.606 1.99994 11.4014V18.5714C1.99994 19.367 2.31601 20.1301 2.87862 20.6927C3.44123 21.2553 4.20429 21.5714 4.99994 21.5714H18.9999C19.7956 21.5714 20.5587 21.2553 21.1213 20.6927C21.6839 20.1301 21.9999 19.367 21.9999 18.5714V11.4014C21.9992 10.606 21.6827 9.84342 21.1199 9.28135ZM9.99994 19.5714V14.5714C9.99994 14.3061 10.1053 14.0518 10.2928 13.8642C10.4804 13.6767 10.7347 13.5714 10.9999 13.5714H12.9999C13.2652 13.5714 13.5195 13.6767 13.707 13.8642C13.8946 14.0518 13.9999 14.3061 13.9999 14.5714V19.5714H9.99994ZM19.9999 18.5714C19.9999 18.8366 19.8946 19.0909 19.707 19.2785C19.5195 19.466 19.2652 19.5714 18.9999 19.5714H15.9999V14.5714C15.9999 13.7757 15.6839 13.0126 15.1213 12.45C14.5587 11.8874 13.7956 11.5714 12.9999 11.5714H10.9999C10.2043 11.5714 9.44123 11.8874 8.87862 12.45C8.31601 13.0126 7.99994 13.7757 7.99994 14.5714V19.5714H4.99994C4.73472 19.5714 4.48037 19.466 4.29283 19.2785C4.1053 19.0909 3.99994 18.8366 3.99994 18.5714V11.4014C3.99918 11.2697 4.0244 11.1393 4.07417 11.0174C4.12393 10.8956 4.19726 10.7848 4.28994 10.6914L11.2899 3.69135C11.3829 3.59762 11.4935 3.52323 11.6154 3.47246C11.7372 3.42169 11.8679 3.39555 11.9999 3.39555C12.132 3.39555 12.2627 3.42169 12.3845 3.47246C12.5064 3.52323 12.617 3.59762 12.7099 3.69135L19.7099 10.6914C19.8026 10.7848 19.8759 10.8956 19.9257 11.0174C19.9755 11.1393 20.0007 11.2697 19.9999 11.4014V18.5714Z" fill="#98A2B3"/>
</g>
<defs>
<clipPath id="clip0_226_300">
<rect width="24" height="24" fill="white"/>
</clipPath>
</defs>
</svg>
