<svg width="48" height="48" viewBox="0 0 48 48" fill="none" xmlns="http://www.w3.org/2000/svg">
<path d="M43.2 16C43.2 16.96 42.56 17.6 41.6 17.6C39.52 17.6 37.76 19.04 37.28 20.9601L36.8 22.72C36.8 22.88 36.64 23.04 36.64 23.2C35.2 30.72 27.04 36.48 17.92 34.88C11.52 33.76 6.39999 29.28 5.27999 23.52C4.95999 22.72 4.79999 21.76 4.79999 20.8L16 20.9601C16.48 20.9601 16.96 20.48 17.12 20C17.12 19.36 16.8 18.88 16.16 18.88L5.11999 17.76C6.07999 10.88 12 4.80005 20.8 4.80005L22.72 20.8H33.92L34.08 20.32C34.88 16.8 38.08 14.4 41.6 14.4C42.4 14.4 43.2 15.04 43.2 16ZM29.6 36.8C27.36 36.8 25.6 38.5601 25.6 40.8C25.6 43.0401 27.36 44.8 29.6 44.8C31.84 44.8 33.6 43.0401 33.6 40.8C33.6 38.5601 31.84 36.8 29.6 36.8ZM12 36.8C9.75999 36.8 7.99999 38.5601 7.99999 40.8C7.99999 43.0401 9.75999 44.8 12 44.8C14.24 44.8 16 43.0401 16 40.8C16 38.5601 14.24 36.8 12 36.8Z" fill="url(#paint0_linear_8_685)"/>
<defs>
<linearGradient id="paint0_linear_8_685" x1="4.79999" y1="8.96672" x2="47.2405" y2="12.7734" gradientUnits="userSpaceOnUse">
<stop stop-color="#FF65AE"/>
<stop offset="0.495192" stop-color="#FF8BC7"/>
<stop offset="1" stop-color="#FF6FB3"/>
</linearGradient>
</defs>
</svg>
